<?xml version="1.0" encoding="UTF-8"?>
<svg id="Layer_1" data-name="Layer 1" xmlns="http://www.w3.org/2000/svg" viewBox="0 0 891.76 158.84">
  <path d="M12.22.65C15.03-.25,18.02.07,20.92.02c4.87-.05,9.62,2.3,12.66,6.08,33.29,39.51,66.54,79.05,99.85,118.55.9.07,1.85-.18,1.94-1.25.02-29.5,0-59,0-88.49.18-1.09-.91-2.17-1.96-1.54-11.03,9.46-22.01,18.98-33.01,28.48-.81.73-1.92,1.19-3.02.97-2.43-.28-3.97-3.43-2.43-5.44,10.73-15.87,21.52-31.71,32.27-47.57,1.29-1.89,2.5-3.88,4.26-5.39,3.23-3.01,7.69-4.65,12.11-4.42,6.75.06,13.06,4.66,15.47,10.92,1.21,2.92,1.28,6.13,1.21,9.25v119.41c0,1.56.06,3.14-.21,4.69-.8,6.08-5.25,11.47-11.03,13.5-3.21,1.26-6.7,1.05-10.08,1.01-4.57-.13-9.07-2.2-12.06-5.67C93.65,113.65,60.39,74.18,27.16,34.68c-.53-.83-1.91-.65-2.3.22-.18,1.08-.06,2.19-.08,3.28v85.73c-.16.88.58,1.32,1.25,1.66,1.13-.57,2.04-1.44,2.97-2.28,10.38-8.86,20.69-17.79,31.08-26.64,1.74-1.49,4.57-.53,5.41,1.49.69,1.22.15,2.66-.61,3.7-10.46,15.42-20.94,30.84-31.4,46.26-1.7,2.39-3.15,5.06-5.54,6.86-4.06,3.38-9.73,4.65-14.85,3.38-6.17-1.41-11.32-6.58-12.63-12.78-.55-2.25-.42-4.57-.43-6.87C.02,99.96.02,61.23.02,22.49c.1-3.24-.32-6.56.54-9.72C1.97,7.06,6.58,2.28,12.22.65Z"/>
  <path d="M202.81,34.42h46.45c9.58,0,16.89,2.31,21.92,6.93,5.03,4.62,7.55,10.46,7.55,17.53,0,9.76-3.9,16.29-11.71,19.58,9.85,3.77,14.77,11.52,14.77,23.23,0,3.82-.73,7.44-2.18,10.86-1.45,3.43-3.71,6.6-6.77,9.53-3.06,2.93-6.71,4.99-10.96,6.18-4.25,1.19-10.45,1.79-18.61,1.79h-40.47V34.42ZM222.01,71.83h23.42c4.55,0,8.04-.93,10.47-2.8,2.43-1.86,3.64-4.49,3.64-7.87s-1.12-5.94-3.35-7.68c-2.23-1.73-6-2.6-11.29-2.6h-22.9v20.95ZM222.01,113.53h24.46c4.9,0,8.69-1.11,11.35-3.32,2.67-2.21,4-5.77,4-10.67,0-3.56-1.28-6.38-3.84-8.46-2.56-2.08-6.07-3.12-10.54-3.12h-25.44v25.57Z"/>
  <path d="M358.7,109.3c-2.17,7.33-6.05,12.94-11.65,16.82-5.6,3.88-12.1,5.82-19.52,5.82-11.67,0-20.58-3.22-26.74-9.66-6.16-6.44-9.24-15.36-9.24-26.77s2.9-20.68,8.69-27.68c5.79-7,14.43-10.51,25.93-10.51,10.32,0,18.45,3.28,24.4,9.82,5.94,6.55,8.91,16.29,8.91,29.21v3.32h-49.25c.43,5.77,2.12,10.1,5.07,12.98,2.95,2.88,6.96,4.33,12.04,4.33,3.04,0,5.66-.7,7.87-2.11,2.21-1.41,3.64-3.26,4.29-5.56h19.19ZM340.28,87.57c-.39-4.51-1.87-8.13-4.42-10.86-2.56-2.73-5.88-4.1-9.95-4.1-8.85,0-13.9,4.99-15.16,14.96h29.54Z"/>
  <path d="M393.31,59.14h11.58v13.34h-11.58v39.75c0,1.87.51,3.08,1.53,3.64,1.02.56,2.59.85,4.72.85s3.9-.09,5.33-.26v13.86c-2.73.43-6.09.65-10.08.65-7.37,0-12.58-1.12-15.61-3.35-3.04-2.23-4.55-6.26-4.55-12.07v-43.07h-9.63v-13.34h9.63v-19.13h18.67v19.13Z"/>
  <path d="M438.07,59.14h11.58v13.34h-11.58v39.75c0,1.87.51,3.08,1.53,3.64,1.02.56,2.59.85,4.72.85s3.9-.09,5.33-.26v13.86c-2.73.43-6.09.65-10.08.65-7.37,0-12.58-1.12-15.61-3.35-3.04-2.23-4.55-6.26-4.55-12.07v-43.07h-9.63v-13.34h9.63v-19.13h18.67v19.13Z"/>
  <path d="M524.6,109.3c-2.17,7.33-6.05,12.94-11.65,16.82-5.6,3.88-12.1,5.82-19.52,5.82-11.67,0-20.58-3.22-26.74-9.66-6.16-6.44-9.24-15.36-9.24-26.77s2.9-20.68,8.69-27.68c5.79-7,14.43-10.51,25.93-10.51,10.32,0,18.45,3.28,24.4,9.82,5.94,6.55,8.91,16.29,8.91,29.21v3.32h-49.25c.43,5.77,2.12,10.1,5.07,12.98,2.95,2.88,6.96,4.33,12.04,4.33,3.04,0,5.66-.7,7.87-2.11,2.21-1.41,3.64-3.26,4.29-5.56h19.19ZM506.18,87.57c-.39-4.51-1.87-8.13-4.42-10.86-2.56-2.73-5.88-4.1-9.95-4.1-8.85,0-13.9,4.99-15.16,14.96h29.54Z"/>
  <path d="M538.39,59.14h17.89v12.3h.26c2.17-4.64,4.79-8.15,7.87-10.54,3.08-2.38,6.94-3.58,11.58-3.58,1.21,0,2.41.09,3.58.26v18.93c-.87-.17-2.65-.26-5.33-.26-5.81,0-10.13,1.4-12.95,4.2-2.82,2.8-4.23,7.04-4.23,12.72v36.89h-18.67V59.14Z"/>
  <path d="M666.33,34.42h18.67v95.64h-19.99l-39.08-68.25h-.26v68.25h-18.67V34.42h21.1l37.98,66.62h.26V34.42Z"/>
  <path d="M767.31,130.06h-17.83v-10.02h-.26c-4.73,7.94-11.93,11.91-21.6,11.91-7.5,0-13.4-2.21-17.7-6.64s-6.44-10.93-6.44-19.52v-46.65h18.67v44.03c0,4.52,1.04,7.83,3.12,9.93s5.07,3.16,8.98,3.16c4.21,0,7.65-1.4,10.34-4.2,2.69-2.8,4.03-6.78,4.03-11.95v-40.97h18.67v70.91Z"/>
  <path d="M848.44,130.06h-23.03l-12.3-21.34-12.23,21.34h-22.51l24.07-36.11-23.16-34.81h22.64l12.04,20.69,11.71-20.69h21.99l-23.36,34.81,24.14,36.11Z"/>
  <path d="M880.18,59.14h11.58v13.34h-11.58v39.75c0,1.87.51,3.08,1.53,3.64,1.02.56,2.59.85,4.72.85s3.9-.09,5.33-.26v13.86c-2.73.43-6.09.65-10.08.65-7.37,0-12.58-1.12-15.61-3.35-3.04-2.23-4.55-6.26-4.55-12.07v-43.07h-9.63v-13.34h9.63v-19.13h18.67v19.13Z"/>
</svg>